<svg id="Layer_1" data-name="Layer 1" xmlns="http://www.w3.org/2000/svg" viewBox="0 0 1584 434"><defs><style>.cls-1{font-size:200px;font-family:Futura-Medium, Futura;font-weight:500;}.cls-2{letter-spacing:0.01em;}.cls-3{letter-spacing:-0.02em;}.cls-4{letter-spacing:-0.02em;}.cls-5{fill:#87cee9;}.cls-6{fill:#f98c96;}.cls-7{fill:#d9176c;}.cls-8{fill:#f4f4e6;}</style></defs><text class="cls-1" transform="translate(401 287.94)">Pl<tspan class="cls-2" x="157.81" y="0">a</tspan><tspan x="279.49" y="0">y</tspan><tspan class="cls-3" x="388.18" y="0">R</tspan><tspan class="cls-4" x="505.37" y="0">ev</tspan><tspan x="709.67" y="0">ersi</tspan></text><path class="cls-5" d="M188.87,125.87H229v43H188.87Z"/><path class="cls-6" d="M145.87,125.87h43v43h-43Z"/><path class="cls-5" d="M269.13,125.87h43v43h-43Z"/><path class="cls-6" d="M229,125.87h40.13v43H229Z"/><path class="cls-6" d="M188.87,168.87H229V209H188.87Z"/><path class="cls-5" d="M145.87,168.87h43V209h-43Z"/><path class="cls-6" d="M269.13,168.87h43V209h-43Z"/><path class="cls-5" d="M229,168.87h40.13V209H229Z"/><path class="cls-5" d="M188.87,209H229v40.13H188.87Z"/><path class="cls-6" d="M145.87,209h43v40.13h-43Z"/><path class="cls-5" d="M269.13,209h43v40.13h-43Z"/><path class="cls-6" d="M229,209h40.13v40.13H229Z"/><path class="cls-6" d="M188.87,249.13H229v43H188.87Z"/><path class="cls-5" d="M145.87,249.13h43v43h-43Z"/><path class="cls-6" d="M269.13,249.13h43v43h-43Z"/><path class="cls-5" d="M229,249.13h40.13v43H229Z"/><circle class="cls-7" cx="208.93" cy="148.8" r="8.6"/><circle class="cls-7" cx="249.07" cy="188.93" r="8.6"/><circle class="cls-8" cx="249.07" cy="269.2" r="8.6"/><circle class="cls-8" cx="208.93" cy="229.07" r="8.6"/><circle class="cls-8" cx="289.2" cy="229.07" r="8.6"/><circle class="cls-8" cx="165.93" cy="269.2" r="8.6"/><circle class="cls-7" cx="289.2" cy="148.8" r="8.6"/><circle class="cls-7" cx="165.93" cy="188.93" r="8.6"/><path d="M208.93,160.27a11.47,11.47,0,1,0-11.46-11.47A11.47,11.47,0,0,0,208.93,160.27Zm0-17.2a5.73,5.73,0,1,1-5.73,5.73A5.73,5.73,0,0,1,208.93,143.07Z"/><path d="M249.07,200.4a11.47,11.47,0,1,0-11.47-11.47A11.46,11.46,0,0,0,249.07,200.4Zm0-17.2a5.74,5.74,0,1,1-5.74,5.73A5.74,5.74,0,0,1,249.07,183.2Z"/><path d="M249.07,280.67A11.47,11.47,0,1,0,237.6,269.2,11.47,11.47,0,0,0,249.07,280.67Zm0-17.2a5.73,5.73,0,1,1-5.74,5.73A5.73,5.73,0,0,1,249.07,263.47Z"/><path d="M208.93,240.53a11.47,11.47,0,1,0-11.46-11.46A11.46,11.46,0,0,0,208.93,240.53Zm0-17.2a5.74,5.74,0,1,1-5.73,5.74A5.74,5.74,0,0,1,208.93,223.33Z"/><path d="M289.2,240.53a11.47,11.47,0,1,0-11.47-11.46A11.47,11.47,0,0,0,289.2,240.53Zm0-17.2a5.74,5.74,0,1,1-5.73,5.74A5.73,5.73,0,0,1,289.2,223.33Z"/><path d="M165.93,280.67a11.47,11.47,0,1,0-11.46-11.47A11.47,11.47,0,0,0,165.93,280.67Zm0-17.2a5.73,5.73,0,1,1-5.73,5.73A5.73,5.73,0,0,1,165.93,263.47Z"/><path d="M289.2,160.27a11.47,11.47,0,1,0-11.47-11.47A11.48,11.48,0,0,0,289.2,160.27Zm0-17.2a5.73,5.73,0,1,1-5.73,5.73A5.72,5.72,0,0,1,289.2,143.07Z"/><path d="M165.93,200.4a11.47,11.47,0,1,0-11.46-11.47A11.46,11.46,0,0,0,165.93,200.4Zm0-17.2a5.74,5.74,0,1,1-5.73,5.73A5.74,5.74,0,0,1,165.93,183.2Z"/><path d="M143,123V295H315V123Zm43,166.27H148.73V252H186Zm0-43H148.73v-34.4H186Zm0-40.14H148.73v-34.4H186ZM186,166H148.73V128.73H186Zm40.13,123.27h-34.4V252h34.4Zm0-43h-34.4v-34.4h34.4Zm0-40.14h-34.4v-34.4h34.4Zm0-40.13h-34.4V128.73h34.4Zm40.14,123.27h-34.4V252h34.4Zm0-43h-34.4v-34.4h34.4Zm0-40.14h-34.4v-34.4h34.4Zm0-40.13h-34.4V128.73h34.4Zm43,123.27H272V252h37.27Zm0-43H272v-34.4h37.27Zm0-40.14H272v-34.4h37.27Zm0-40.13H272V128.73h37.27Z"/><path d="M303.53,263.47H297.8V277.8h-8.6v5.73h14.33Z"/><path d="M160.2,137.33h5.73v5.74H160.2Z"/><path d="M168.8,145.93h5.73v5.74H168.8Z"/><path d="M277.73,277.8h5.74v5.73h-5.74Z"/></svg>